# xmcd CD database file
#
# Track frame offsets:
#	150
#	17820
#	35387
#	53941
#
# Disc length: 947 seconds
#
# Revision: 0
# Processed by: cddbd v1.5.2PL0 Copyright (c) Steve Scherf et al.
# Submitted via: CDex 1.70beta2
#
DISCID=2b03b104
DTITLE=TVT Records - It's TVT Bitch!
DYEAR=2005
DGENRE=Rap
TTITLE0=Ying Yang Twins - Wait (The Whisper Song)
TTITLE1=O Solo - Big Deal Freestyle
TTITLE2=Lil Jon And The Eastside Boyz - Get Crunk feat. Bo Hagan
TTITLE3=Pitbull - 305 Anthem feat. Lil Jon
EXTD=YEAR: 2005
EXTT0=
EXTT1=
EXTT2=
EXTT3=
PLAYORDER=
